{
  "accessors": [
    {
      "bufferView": 2,
      "componentType": 5126,
      "count": 720,
      "max": [
        100.0,
        100.0,
        100.0
      ],
      "min": [
        -100.0,
        -100.0,
        -100.0
      ],
      "type": "VEC3"
    },
    {
      "bufferView": 2,
      "byteOffset": 8640,
      "componentType": 5126,
      "count": 720,
      "type": "VEC3"
    },
    {
      "bufferView": 1,
      "componentType": 5126,
      "count": 720,
      "type": "VEC2"
    },
    {
      "bufferView": 0,
      "componentType": 5125,
      "count": 3600,
      "type": "SCALAR"
    },
    {
      "bufferView": 2,
      "byteOffset": 17280,
      "componentType": 5126,
      "count": 57974,
      "max": [
        103.80024719238281,
        103.80024719238281,
        103.80024719238281
      ],
      "min": [
        -103.80024719238281,
        -103.80024719238281,
        -103.80024719238281
      ],
      "type": "VEC3"
    },
    {
      "bufferView": 2,
      "byteOffset": 712968,
      "componentType": 5126,
      "count": 57974,
      "type": "VEC3"
    },
    {
      "bufferView": 1,
      "byteOffset": 5760,
      "componentType": 5126,
      "count": 57974,
      "type": "VEC2"
    },
    {
      "bufferView": 0,
      "byteOffset": 14400,
      "componentType": 5125,
      "count": 341376,
      "type": "SCALAR"
    },
    {
      "bufferView": 2,
      "byteOffset": 1408656,
      "componentType": 5126,
      "count": 65532,
      "max": [
        102.46834564208984,
        102.46834564208984,
        102.46834564208984
      ],
      "min": [
        -102.46834564208984,
        -102.46834564208984,
        -101.31285858154297
      ],
      "type": "VEC3"
    },
    {
      "bufferView": 2,
      "byteOffset": 2195040,
      "componentType": 5126,
      "count": 65532,
      "type": "VEC3"
    },
    {
      "bufferView": 1,
      "byteOffset": 469552,
      "componentType": 5126,
      "count": 65532,
      "type": "VEC2"
    },
    {
      "bufferView": 0,
      "byteOffset": 1379904,
      "componentType": 5125,
      "count": 338583,
      "type": "SCALAR"
    },
    {
      "bufferView": 2,
      "byteOffset": 2981424,
      "componentType": 5126,
      "count": 50320,
      "max": [
        102.46834564208984,
        102.46834564208984,
        102.46834564208984
      ],
      "min": [
        -102.46834564208984,
        -102.46834564208984,
        -102.46834564208984
      ],
      "type": "VEC3"
    },
    {
      "bufferView": 2,
      "byteOffset": 3585264,
      "componentType": 5126,
      "count": 50320,
      "type": "VEC3"
    },
    {
      "bufferView": 1,
      "byteOffset": 993808,
      "componentType": 5126,
      "count": 50320,
      "type": "VEC2"
    },
    {
      "bufferView": 0,
      "byteOffset": 2734236,
      "componentType": 5125,
      "count": 221289,
      "type": "SCALAR"
    }
  ],
  "asset": {
    "generator": "fab-model-conversion",
    "version": "2.0"
  },
  "bufferViews": [
    {
      "buffer": 0,
      "byteLength": 3619392,
      "target": 34963
    },
    {
      "buffer": 0,
      "byteLength": 1396368,
      "byteOffset": 3619392,
      "byteStride": 8,
      "target": 34962
    },
    {
      "buffer": 0,
      "byteLength": 4189104,
      "byteOffset": 5015760,
      "byteStride": 12,
      "target": 34962
    }
  ],
  "buffers": [
    {
      "byteLength": 9204864,
      "uri": "scene.bin"
    }
  ],
  "extensionsUsed": [
    "KHR_materials_clearcoat",
    "KHR_materials_specular"
  ],
  "materials": [
    {
      "doubleSided": true,
      "name": "material",
      "pbrMetallicRoughness": {
        "baseColorFactor": [
          0.8,
          0.8,
          0.8,
          1.0
        ],
        "metallicFactor": 0.0,
        "roughnessFactor": 0.9524317153998911
      }
    },
    {
      "doubleSided": true,
      "extensions": {
        "KHR_materials_clearcoat": {
          "clearcoatFactor": 1,
          "clearcoatRoughnessFactor": 0.3553734756097561
        },
        "KHR_materials_specular": {
          "specularFactor": 1
        }
      },
      "name": "Mat.2",
      "pbrMetallicRoughness": {
        "baseColorFactor": [
          0.19413198274092813,
          0.19413198274092813,
          0.19413198274092813,
          1.0
        ],
        "roughnessFactor": 0.0
      }
    },
    {
      "doubleSided": true,
      "extensions": {
        "KHR_materials_clearcoat": {
          "clearcoatFactor": 0.41634908536585363,
          "clearcoatRoughnessFactor": 0.2761051829268293
        },
        "KHR_materials_specular": {
          "specularFactor": 1
        }
      },
      "name": "Mat.1",
      "pbrMetallicRoughness": {
        "roughnessFactor": 0.4434070121951219
      }
    }
  ],
  "meshes": [
    {
      "name": "Sphere_Mat_0",
      "primitives": [
        {
          "attributes": {
            "NORMAL": 1,
            "POSITION": 0,
            "TEXCOORD_0": 2
          },
          "indices": 3,
          "material": 0,
          "mode": 4
        }
      ]
    },
    {
      "name": "Trypogen_2_Mat.2_0",
      "primitives": [
        {
          "attributes": {
            "NORMAL": 5,
            "POSITION": 4,
            "TEXCOORD_0": 6
          },
          "indices": 7,
          "material": 1,
          "mode": 4
        }
      ]
    },
    {
      "name": "Trypogen_Mat.1_0",
      "primitives": [
        {
          "attributes": {
            "NORMAL": 9,
            "POSITION": 8,
            "TEXCOORD_0": 10
          },
          "indices": 11,
          "material": 2,
          "mode": 4
        }
      ]
    },
    {
      "name": "Trypogen_Mat.1_0",
      "primitives": [
        {
          "attributes": {
            "NORMAL": 13,
            "POSITION": 12,
            "TEXCOORD_0": 14
          },
          "indices": 15,
          "material": 2,
          "mode": 4
        }
      ]
    }
  ],
  "nodes": [
    {
      "children": [
        1
      ],
      "matrix": [
        1.0,
        0.0,
        0.0,
        0.0,
        0.0,
        2.220446049250313e-16,
        -1.0,
        0.0,
        0.0,
        1.0,
        2.220446049250313e-16,
        0.0,
        0.0,
        0.0,
        0.0,
        1.0
      ],
      "name": "Sketchfab_model"
    },
    {
      "children": [
        2
      ],
      "matrix": [
        1.0,
        0.0,
        0.0,
        0.0,
        0.0,
        0.0,
        1.0,
        0.0,
        0.0,
        -1.0,
        0.0,
        0.0,
        0.0,
        0.0,
        0.0,
        1.0
      ],
      "name": "e3af833dd40a4eedbcf00ac4458a8f5e.fbx"
    },
    {
      "children": [
        3,
        5,
        7,
        9
      ],
      "name": "RootNode"
    },
    {
      "children": [
        4
      ],
      "matrix": [
        -0.6667539179723689,
        -0.3329841223496841,
        -0.6667539179723695,
        0.0,
        -0.23545533094091287,
        0.9429324335619231,
        -0.23545533094091242,
        0.0,
        0.7071067811865474,
        4.0245584642661925e-16,
        -0.707106781186547,
        0.0,
        318.5998229980469,
        250.73793029785156,
        283.9010314941406,
        1.0
      ],
      "name": "CINEMA_4D_Editor"
    },
    {
      "name": "Object_4"
    },
    {
      "children": [
        6
      ],
      "matrix": [
        1.0,
        0.0,
        0.0,
        0.0,
        0.0,
        1.0,
        -8.881784197001252e-16,
        0.0,
        0.0,
        8.881784197001252e-16,
        1.0,
        0.0,
        0.0,
        102.48243713378906,
        0.0,
        1.0
      ],
      "name": "Sphere"
    },
    {
      "mesh": 0,
      "name": "Sphere_Mat_0"
    },
    {
      "children": [
        8
      ],
      "matrix": [
        1.0,
        0.0,
        0.0,
        0.0,
        0.0,
        1.0,
        -8.881784197001252e-16,
        0.0,
        0.0,
        8.881784197001252e-16,
        1.0,
        0.0,
        0.0,
        102.48243713378906,
        0.0,
        1.0
      ],
      "name": "Trypogen_2"
    },
    {
      "mesh": 1,
      "name": "Trypogen_2_Mat.2_0"
    },
    {
      "children": [
        10,
        11
      ],
      "matrix": [
        1.0,
        0.0,
        0.0,
        0.0,
        0.0,
        1.0,
        -8.881784197001252e-16,
        0.0,
        0.0,
        8.881784197001252e-16,
        1.0,
        0.0,
        0.0,
        102.48243713378906,
        0.0,
        1.0
      ],
      "name": "Trypogen"
    },
    {
      "mesh": 2,
      "name": "Trypogen_Mat.1_0"
    },
    {
      "mesh": 3,
      "name": "Trypogen_Mat.1_0"
    }
  ],
  "scene": 0,
  "scenes": [
    {
      "name": "Sketchfab_Scene",
      "nodes": [
        0
      ]
    }
  ]
}
